<svg version="1.1" id="Layer_1" xmlns="http://www.w3.org/2000/svg" xmlns:xlink="http://www.w3.org/1999/xlink" x="0px" y="0px" width="100%" viewBox="0 0 1024 1024" enable-background="new 0 0 1024 1024" xml:space="preserve">
<path fill="#000000" opacity="1.000000" stroke="none" d=" M495.857880,708.882996   C527.507568,670.119568 560.588196,633.051575 594.931458,595.222229   C588.083435,594.414612 583.230896,596.391663 578.254761,596.812256   C558.535095,598.478882 534.724854,590.803040 525.204712,569.806274   C516.425049,550.442688 520.807983,523.723450 536.163574,509.089569   C546.306824,499.423065 558.632629,495.630524 572.578247,499.309753   C590.475830,504.031555 600.526123,523.751709 594.763367,542.194275   C592.012573,550.997864 586.866028,558.313477 581.124634,565.272339   C578.331482,568.657654 576.455139,568.369507 574.233154,564.737122   C571.277649,559.905640 568.441956,554.998230 565.382690,550.233948   C563.656372,547.545532 563.684509,546.014709 566.987793,544.547852   C576.236877,540.440674 579.153198,532.218872 574.525085,524.237183   C570.127930,516.653625 560.253601,515.041382 552.285278,520.837585   C544.626709,526.408386 541.053406,534.480164 540.316406,543.566589   C538.550110,565.342590 550.567383,577.911438 572.486206,577.762024   C593.177917,577.621033 608.973328,565.395325 612.173157,546.149597   C614.230835,533.773804 609.510315,522.902161 602.222595,513.107971   C590.847473,497.820679 575.926086,486.275757 561.204468,474.532928   C556.637329,470.889893 552.269531,467.064240 548.582458,462.481903   C533.387024,443.596588 543.934753,420.390076 558.502869,412.540192   C560.071106,411.695160 562.001770,411.311829 563.003662,409.512421   C562.936890,406.841339 560.806091,405.514984 559.212280,403.918976   C545.227234,389.914856 532.343506,374.755157 516.357117,362.846100   C513.304565,360.572144 513.615234,358.428162 515.947266,355.821899   C525.500000,345.145782 535.010132,334.430817 544.447876,323.652924   C546.750793,321.022980 548.624878,321.958252 550.842529,323.668121   C569.845459,338.320221 588.756653,353.074493 606.262512,369.540314   C631.567444,393.341888 655.426514,418.411682 674.773560,447.439636   C684.461121,461.974945 692.156006,477.438019 695.191284,494.819366   C698.750549,515.201233 694.160706,534.244080 684.696045,552.228271   C671.760132,576.808411 655.161255,598.954712 638.060547,620.703125   C608.905884,657.781738 576.986633,692.499451 545.936829,727.958801   C529.913208,746.258057 514.155762,764.786011 499.422150,784.152771   C491.933319,793.996521 490.200714,794.195679 481.551971,784.959351   C453.535736,755.039734 425.524963,725.114807 397.601959,695.108215   C369.008514,664.381165 340.444122,633.626160 312.020416,602.742249   C298.356873,587.896057 285.363678,572.479004 275.090607,554.987305   C268.688690,544.086792 264.021759,532.490234 263.065155,519.829468   C261.926819,504.763397 266.055084,490.732727 273.763519,477.908234   C299.141998,435.686218 333.861053,400.850037 364.965088,363.158752   C387.230286,336.178162 409.729767,309.391022 432.023254,282.433655   C440.170349,272.582184 448.132050,262.572021 455.972839,252.474701   C460.790680,246.270325 467.291595,242.987915 474.430664,240.426437   C486.381104,236.138641 498.582550,232.894760 511.155731,231.109497   C512.890747,230.863129 514.786072,230.190033 516.401184,231.831970   C517.027771,234.281174 515.223389,235.856232 514.078613,237.564865   C499.503387,259.319336 483.531830,280.038605 466.695831,300.062744   C445.794830,324.921692 424.707855,349.630951 403.334106,374.083923   C377.861786,403.225952 354.277466,433.775452 332.709808,465.907288   C321.201782,483.052155 313.397125,501.282715 315.287781,522.490601   C316.823303,539.714233 324.013336,554.849243 333.188629,569.126892   C349.467377,594.458252 369.055481,617.154053 389.575043,639.076538   C415.009430,666.249939 442.623138,691.067383 471.479675,714.529907   C473.417236,716.105225 475.338928,717.741821 477.454468,719.047791   C481.844727,721.757935 486.041016,720.942383 489.351898,716.933472   C491.473724,714.364258 493.547058,711.755005 495.857880,708.882996  M607.780579,453.708588   C605.440247,451.488861 603.858582,448.346191 600.333313,447.367401   C597.826660,449.497559 598.671875,452.354675 598.194885,454.869629   C597.671570,457.628326 597.249756,461.102356 592.965820,459.151825   C587.364990,456.601685 581.856018,453.842865 576.369873,451.051208   C573.842590,449.765167 573.079102,447.899963 575.161133,445.438538   C577.120911,443.121674 578.654053,440.553680 578.880798,437.421875   C579.098755,434.411804 578.278870,431.837341 575.681519,430.015991   C573.037476,428.161865 570.358215,428.488892 567.665100,429.830383   C565.194214,431.061066 563.409058,432.975006 562.211304,435.457275   C559.356079,441.374298 560.427307,447.330780 566.222534,452.509644   C577.386230,462.485931 589.132019,471.821503 600.116150,481.985046   C612.534424,493.475739 623.394165,506.290314 628.625549,522.868347   C629.953918,527.078064 630.831299,531.429993 631.943909,535.827271   C634.472656,534.974487 634.715698,532.795776 635.263000,531.020264   C640.068115,515.433960 639.197083,500.305725 632.093323,485.437500   C626.300537,473.313232 617.063904,463.973602 607.780579,453.708588  z"/>
<path fill="#000000" opacity="1.000000" stroke="none" d=" M423.526611,366.541626   C448.189331,338.063019 472.896362,310.091461 496.399750,281.087891   C508.050690,266.710388 519.162354,251.931686 530.125610,237.033096   C533.962830,231.818466 534.584351,231.753860 539.103088,236.547287   C575.328552,274.975067 611.581604,313.377136 647.716858,351.889618   C676.562012,382.632355 705.043884,413.710632 732.555603,445.660004   C739.628174,453.873383 745.947266,462.664093 751.593384,471.945740   C766.313171,496.143768 767.034973,520.564209 753.159912,545.365051   C747.287781,555.861084 740.566040,565.795532 733.351685,575.384399   C698.466614,621.751526 658.842896,664.168274 621.929382,708.846313   C604.844177,729.525330 587.655212,750.110779 571.555908,771.590271   C567.573547,776.903503 562.654114,781.397095 555.908630,783.886902   C542.405334,788.871094 528.689575,792.745483 514.426941,794.662415   C513.136536,794.835876 511.806854,795.355835 510.367096,794.322083   C509.986877,791.578369 512.203308,789.933777 513.612000,788.077271   C529.133179,767.621948 546.089233,748.345520 562.591064,728.695862   C601.699951,682.126831 641.904480,636.448425 677.807556,587.271667   C686.059326,575.969299 694.058899,564.497253 700.748535,552.143494   C717.074524,521.994263 715.898193,492.273773 699.360229,462.610962   C687.094299,440.610504 671.215637,421.341156 654.616089,402.626984   C625.005615,369.244263 592.679993,338.780182 556.485229,312.552643   C554.867310,311.380249 553.222229,310.235809 551.522217,309.188049   C545.782715,305.650726 540.821045,306.229309 536.372192,311.245667   C519.904053,329.814758 503.571686,348.504456 487.068787,367.042511   C478.543427,376.619232 469.758423,385.964691 461.116669,395.438232   C460.242218,396.396851 459.155090,397.272400 459.007751,398.747559   C459.536072,400.085083 460.875336,400.084320 461.930389,400.305023   C486.369995,405.417267 500.873474,421.162109 506.119690,444.636261   C513.283264,476.689606 508.399658,506.840515 487.370514,533.238220   C486.189850,534.720398 484.980530,536.028931 486.257294,538.076843   C494.189056,550.799377 497.195282,565.580322 503.340820,579.053223   C507.128479,587.356812 511.520966,595.083130 520.121704,599.455078   C524.236511,601.546753 527.910828,602.060791 530.555847,597.594543   C532.865540,598.557617 532.276367,600.275818 532.289856,601.654236   C532.353455,608.153381 532.336975,614.653687 532.300720,621.153320   C532.291687,622.769531 532.746338,624.773621 530.825256,625.563599   C529.119690,626.264771 528.210510,624.582397 527.128723,623.609375   C525.378784,622.035278 523.502869,620.781128 521.107788,620.251465   C507.050598,617.142822 497.829712,607.898071 490.866943,595.975220   C486.232117,588.038696 482.892212,579.497681 479.719208,570.890930   C477.760559,565.578064 475.763336,560.273315 473.571747,555.053833   C470.547760,547.851929 469.788086,547.610962 462.576874,550.865112   C457.515533,553.149170 452.144012,554.326599 446.719330,555.172852   C443.437592,555.684814 442.072968,557.369385 442.082153,560.516296   C442.105530,568.515869 442.068329,576.515869 442.144775,584.514832   C442.183502,588.564270 445.954590,592.210022 443.440277,596.653259   C443.188538,597.098145 444.472137,598.638916 445.282318,599.424438   C467.022064,620.499573 486.650024,643.830200 511.491638,661.590027   C514.484497,663.729675 514.804138,665.430481 512.228027,668.327393   C502.268280,679.527283 492.483704,690.884949 482.764679,702.295227   C480.952179,704.423157 479.646576,704.690674 477.429443,702.927795   C455.648682,685.608948 434.735199,667.333801 414.911987,647.778076   C397.093262,630.199890 380.202362,611.821106 364.616089,592.242310   C354.514526,579.553284 345.569733,566.125549 339.134796,551.174744   C327.019745,523.026794 330.227020,495.929901 344.981445,469.687439   C356.710602,448.825897 371.416687,430.059753 386.335205,411.478394   C398.432709,396.410736 410.961700,381.689514 423.526611,366.541626  M442.090057,463.445557   C442.043213,474.011780 442.032379,474.068329 452.202209,476.015900   C455.293549,476.607880 458.458374,476.836609 461.597412,477.153564   C465.150269,477.512268 466.296082,479.131866 464.780029,482.533875   C463.087128,486.332886 461.557983,490.204590 459.939575,494.037079   C456.262299,502.745209 456.268158,502.729004 448.831604,497.372040   C447.374268,496.322266 445.864227,494.812561 443.895966,495.732208   C441.660767,496.776672 442.046814,499.082184 442.040741,501.027039   C442.011108,510.517059 442.001038,520.007751 442.085754,529.497314   C442.134277,534.935974 444.075256,536.321045 449.299988,534.891846   C460.358337,531.866760 469.291077,525.534851 475.626709,516.179016   C491.019043,493.449188 493.991943,468.555664 485.312561,442.856018   C478.535095,422.787872 458.796356,414.301056 438.711029,421.210266   C436.835541,421.855469 434.645111,422.226044 434.133942,424.562042   C433.312042,428.317841 430.616821,430.906158 428.664948,433.971191   C426.148468,437.922882 422.337708,441.088013 420.917694,445.994934   C429.009308,447.587646 436.982422,445.539581 445.504456,447.120087   C441.237030,452.130157 442.131378,457.388123 442.090057,463.445557  M394.504578,486.023590   C386.311432,501.584900 383.321594,517.535889 390.444244,534.431152   C396.961334,549.890015 408.868561,561.091125 420.234009,572.741455   C420.391418,572.902771 420.858978,572.761536 421.667725,572.761536   C423.407532,567.015930 422.684601,561.080444 422.351257,555.190491   C422.249512,553.392639 420.527008,553.012756 419.179108,552.388855   C400.396332,543.694519 389.034180,522.602722 392.839752,502.259491   C394.989716,490.766571 399.711182,479.733398 411.686951,475.962341   C421.459625,472.884979 424.123688,467.523743 422.692139,458.462097   C422.538055,457.486633 422.664917,456.467957 422.646729,455.469604   C422.595551,452.663940 421.609131,450.373749 418.732391,448.450806   C409.707336,460.259491 402.441864,472.921265 394.504578,486.023590  M422.485474,496.394562   C419.973755,492.251770 417.675995,494.058807 415.615601,496.757019   C409.745544,504.444183 409.972229,518.595886 416.034912,526.771301   C417.118042,528.231934 418.231506,530.095337 420.338165,529.568481   C422.813782,528.949402 422.633148,526.580566 422.639038,524.619934   C422.666412,515.489380 422.623840,506.358673 422.485474,496.394562  z"/>
</svg>